<?xml version="1.0" encoding="UTF-8"?>
<svg version="1.1" xmlns="http://www.w3.org/2000/svg" width="200" height="200">
<path d="M0 0 C66 0 132 0 200 0 C200 66 200 132 200 200 C134 200 68 200 0 200 C0 134 0 68 0 0 Z " fill="#DF7001" transform="translate(0,0)"/>
<path d="M0 0 C65.34 0 130.68 0 198 0 C198 17.49 198 34.98 198 53 C132.66 53 67.32 53 0 53 C0 35.51 0 18.02 0 0 Z " fill="#FFF" transform="translate(1,146)"/>
<path d="M0 0 C21.78 0 43.56 0 66 0 C66 7.59 66 15.18 66 23 C50.49 23 34.98 23 19 23 C18.67 28.94 18.34 34.88 18 41 C20.64 40.01 23.28 39.02 26 38 C42.01358192 38 49.91682887 39.42722526 62 50 C71.04367568 65.0727928 70 67.66470712 70 87 C64.97100849 102.08697452 60.45490933 108.43778497 47 117 C31.57710457 121.20624421 20.78235218 121.15931341 6 115 C-1.88229817 109.36978702 -5.69440606 103.61118788 -10 95 C-10.33 91.04 -10.66 87.08 -11 83 C-2.42 83 6.16 83 15 83 C15.99 86.3 16.98 89.6 18 93 C23.36440544 98.14527425 23.36440544 98.14527425 34 97 C40.01285867 94.04353261 40.01285867 94.04353261 43 85 C43.96896279 72.4472136 43.96896279 72.4472136 39 64 C33.39975495 60.05675778 33.39975495 60.05675778 23 61 C17.16666667 64.33333333 17.16666667 64.33333333 15 68 C7.74 67.67 0.48 67.34 -7 67 C-5.80143848 47.82301565 -3.7178365 29.0248555 -1 10 C-0.67 6.7 -0.34 3.4 0 0 Z " fill="#FFF" transform="translate(79,14)"/>
<path d="M0 0 C7.26 0 14.52 0 22 0 C22 39.27 22 78.54 22 119 C13.42 119 4.84 119 -4 119 C-4 92.93 -4 66.86 -4 40 C-12.91 40 -21.82 40 -31 40 C-31 33.4 -31 26.8 -31 20 C-26.38 19.67 -21.76 19.34 -17 19 C-6.94056037 15.89555708 -6.94056037 15.89555708 -2 9 C-1.34 6.03 -0.68 3.06 0 0 Z " fill="#FFF" transform="translate(39,12)"/>
<path d="M0 0 C1.32 0.33 2.64 0.66 4 1 C2.66666667 4.33333333 1.33333333 7.66666667 0 11 C0.66 11 1.32 11 2 11 C2.66 9.35 3.32 7.7 4 6 C5.32 6 6.64 6 8 6 C8 4.35 8 2.7 8 1 C15.59 1 23.18 1 31 1 C32 6 32 6 30 13 C31.32 13.33 32.64 13.66 34 14 C35 15 35 15 35 21 C33.02 25.29 31.04 29.58 29 34 C30.98 35.65 32.96 37.3 35 39 C34.34 40.32 33.68 41.64 33 43 C31.35 42.01 29.7 41.02 28 40 C26.68 39.34 25.36 38.68 24 38 C20.04 40.475 20.04 40.475 16 43 C15.34 43 14.68 43 14 43 C13.01 42.01 12.02 41.02 11 40 C11 40.66 11 41.32 11 42 C9.35 41.67 7.7 41.34 6 41 C6.66 39.02 7.32 37.04 8 35 C7.34 35 6.68 35 6 35 C5.67 33.68 5.34 32.36 5 31 C4.67 34.63 4.34 38.26 4 42 C2.68 42 1.36 42 0 42 C0 35.73 0 29.46 0 23 C-2.31 23.33 -4.62 23.66 -7 24 C-7 22.35 -7 20.7 -7 19 C-5.35 18.01 -3.7 17.02 -2 16 C-5.4202491 12.15811388 -5.4202491 12.15811388 -8 11 C-7.67 9.68 -7.34 8.36 -7 7 C-6.01 6.67 -5.02 6.34 -4 6 C-2.68 4.02 -1.36 2.04 0 0 Z " fill="#101010" transform="translate(139,152)"/>
<path d="M0 0 C5.61 0 11.22 0 17 0 C17 3.63 17 7.26 17 11 C20.63 11 24.26 11 28 11 C28 16.61 28 22.22 28 28 C24.37 28 20.74 28 17 28 C17 31.63 17 35.26 17 39 C11.39 39 5.78 39 0 39 C0 35.37 0 31.74 0 28 C-3.63 28 -7.26 28 -11 28 C-11 22.39 -11 16.78 -11 11 C-7.37 11 -3.74 11 0 11 C0 7.37 0 3.74 0 0 Z " fill="#FEFEFE" transform="translate(164,11)"/>
<path d="M0 0 C1.32 0.33 2.64 0.66 4 1 C7 6 7 6 7 8 C3 9 3 9 -4 8 C-4 8.66 -4 9.32 -4 10 C-1.03 10 1.94 10 5 10 C5 20.56 5 31.12 5 42 C2 44 2 44 -3 43 C-3 41.35 -3 39.7 -3 38 C-2.01 38 -1.02 38 0 38 C0 36.02 0 34.04 0 32 C-1.32 32 -2.64 32 -4 32 C-4 35.3 -4 38.6 -4 42 C-5.32 42 -6.64 42 -8 42 C-8 38.7 -8 35.4 -8 32 C-9.32 32 -10.64 32 -12 32 C-12 35.3 -12 38.6 -12 42 C-13.65 42 -15.3 42 -17 42 C-17 31.44 -17 20.88 -17 10 C-14.03 10 -11.06 10 -8 10 C-8 9.34 -8 8.68 -8 8 C-10.97 8 -13.94 8 -17 8 C-17 6.68 -17 5.36 -17 4 C-14.03 4 -11.06 4 -8 4 C-8 3.01 -8 2.02 -8 1 C-6.68 1 -5.36 1 -4 1 C-4 1.99 -4 2.98 -4 4 C-2.68 4 -1.36 4 0 4 C-0.33 3.01 -0.66 2.02 -1 1 C-0.67 0.67 -0.34 0.34 0 0 Z " fill="#1D1D1D" transform="translate(61,152)"/>
<path d="M0 0 C1.32 0 2.64 0 4 0 C4 1.32 4 2.64 4 4 C5.98 4 7.96 4 10 4 C10 5.32 10 6.64 10 8 C8.02 8 6.04 8 4 8 C4 8.66 4 9.32 4 10 C6.31 10 8.62 10 11 10 C11 16.27 11 22.54 11 29 C10.67 29.33 10.34 29.66 10 30 C8.02 30 6.04 30 4 30 C4 30.66 4 31.32 4 32 C5.98 32 7.96 32 10 32 C10 33.32 10 34.64 10 36 C8.02 36 6.04 36 4 36 C4 38.31 4 40.62 4 43 C2.68 43 1.36 43 0 43 C0 40.69 0 38.38 0 36 C-2.31 36 -4.62 36 -7 36 C-7 34.68 -7 33.36 -7 32 C-4.69 32 -2.38 32 0 32 C0 31.34 0 30.68 0 30 C-2.31 30 -4.62 30 -7 30 C-7 23.4 -7 16.8 -7 10 C-4.69 10 -2.38 10 0 10 C0 9.34 0 8.68 0 8 C-2.31 8 -4.62 8 -7 8 C-7 6.68 -7 5.36 -7 4 C-4.69 4 -2.38 4 0 4 C0 2.68 0 1.36 0 0 Z " fill="#171717" transform="translate(32,152)"/>
<path d="M0 0 C6.27 0 12.54 0 19 0 C19 2.31 19 4.62 19 7 C14.38 7 9.76 7 5 7 C5 8.65 5 10.3 5 12 C7.97 12 10.94 12 14 12 C19 16 19 16 20 18 C20 28 20 28 16 34 C12 36 12 36 3 36 C-3 31 -3 31 -4 26 C-1.69 26 0.62 26 3 26 C3.99 27.32 4.98 28.64 6 30 C7.65 29.67 9.3 29.34 11 29 C12.67082039 26.03103721 12.67082039 26.03103721 12 18 C9.69 18 7.38 18 5 18 C4.67 18.33 4.34 18.66 4 19 C1.69 19 -0.62 19 -3 19 C-2 9 -2 9 0 0 Z " fill="#0C0C0C" transform="translate(103,156)"/>
<path d="M0 0 C7.26 0 14.52 0 22 0 C22 39.93 22 79.86 22 121 C21.34 121 20.68 121 20 121 C20 82.06 20 43.12 20 3 C13.07 3 6.14 3 -1 3 C-0.67 2.01 -0.34 1.02 0 0 Z " fill="#A04D03" transform="translate(41,9)"/>
<path d="M0 0 C1.32 0.33 2.64 0.66 4 1 C2.66666667 4.33333333 1.33333333 7.66666667 0 11 C0.66 11 1.32 11 2 11 C2.66 9.35 3.32 7.7 4 6 C5.32 6.33 6.64 6.66 8 7 C7 11 7 11 3 17 C3.66 17.33 4.32 17.66 5 18 C5 17.01 5 16.02 5 15 C6.32 14.67 7.64 14.34 9 14 C11 19 11 19 11 23 C9.68 23.33 8.36 23.66 7 24 C7 23.34 7 22.68 7 22 C6.01 22.33 5.02 22.66 4 23 C3.67 29.27 3.34 35.54 3 42 C2.01 42 1.02 42 0 42 C0 35.73 0 29.46 0 23 C-2.31 23.33 -4.62 23.66 -7 24 C-7 22.35 -7 20.7 -7 19 C-5.35 18.01 -3.7 17.02 -2 16 C-5.4202491 12.15811388 -5.4202491 12.15811388 -8 11 C-7.67 9.68 -7.34 8.36 -7 7 C-6.01 6.67 -5.02 6.34 -4 6 C-2.68 4.02 -1.36 2.04 0 0 Z " fill="#0A0A0A" transform="translate(139,152)"/>
<path d="M0 0 C0.99 0 1.98 0 3 0 C2 9 2 9 0 16 C0.99 16 1.98 16 3 16 C3 15.34 3 14.68 3 14 C9.5659052 10.7170474 17.65909482 13 25 13 C34 16 34 16 42 22 C42.495 23.485 42.495 23.485 43 25 C44.32 26.32 45.64 27.64 47 29 C50 35 50 35 50 38 C50.66 38 51.32 38 52 38 C56.02768199 46.05536398 53 55.99382928 53 65 C49 76 49 76 46 81 C45.34 81 44.68 81 44 81 C44.66 79.35 45.32 77.7 46 76 C51.15942243 60.5217327 51.60761468 48.42094037 46 33 C38.30027491 23.10035346 33.7796792 19.92655973 22 16 C7.79056942 15.20943058 7.79056942 15.20943058 -2 19 C-1 6 -1 6 0 0 Z " fill="#994F0E" transform="translate(98,37)"/>
<path d="M0 0 C1.98 0 3.96 0 6 0 C6 11.55 6 23.1 6 35 C4.02 35 2.04 35 0 35 C0 26.75 0 18.5 0 10 C-1.98 11.32 -3.96 12.64 -6 14 C-6.99 14 -7.98 14 -9 14 C-9 12.02 -9 10.04 -9 8 C-7.02 6.68 -5.04 5.36 -3 4 C-2.01 2.68 -1.02 1.36 0 0 Z " fill="#020202" transform="translate(82,156)"/>
<path d="M0 0 C5.28 0 10.56 0 16 0 C18.40370085 2.40370085 17.624605 6.62144496 18 10 C23.445 10.495 23.445 10.495 29 11 C29 16.94 29 22.88 29 29 C28.01 29.33 27.02 29.66 26 30 C26 24.39 26 18.78 26 13 C22.37 13 18.74 13 15 13 C15 9.37 15 5.74 15 2 C9.39 2 3.78 2 -2 2 C-1.34 1.34 -0.68 0.68 0 0 Z " fill="#A15510" transform="translate(166,9)"/>
<path d="M0 0 C1.32 0 2.64 0 4 0 C4 17 4 17 1 25 C0.67 25 0.34 25 0 25 C0 23.02 0 21.04 0 19 C-1.65 19.33 -3.3 19.66 -5 20 C-5 18.68 -5 17.36 -5 16 C-4.01 16 -3.02 16 -2 16 C-2 16.66 -2 17.32 -2 18 C-0.68 17.67 0.64 17.34 2 17 C1.34 14.03 0.68 11.06 0 8 C-1.32 8.33 -2.64 8.66 -4 9 C-4 9.99 -4 10.98 -4 12 C-4.99 11.67 -5.98 11.34 -7 11 C-4.69 7.37 -2.38 3.74 0 0 Z " fill="#FFF" transform="translate(148,158)"/>
<path d="M0 0 C0.66 0.99 1.32 1.98 2 3 C4.97 3.33 7.94 3.66 11 4 C11 4.66 11 5.32 11 6 C8.03 6 5.06 6 2 6 C2 16.56 2 27.12 2 38 C1.67 38 1.34 38 1 38 C1 36.35 1 34.7 1 33 C-0.98 33 -2.96 33 -5 33 C-5 34.98 -5 36.96 -5 39 C-5.33 39 -5.66 39 -6 39 C-6 36.69 -6 34.38 -6 32 C-4.02 32 -2.04 32 0 32 C0 30.68 0 29.36 0 28 C-1.98 28 -3.96 28 -6 28 C-6 27.34 -6 26.68 -6 26 C-4.02 25.67 -2.04 25.34 0 25 C0.33 18.73 0.66 12.46 1 6 C-1.31 6 -3.62 6 -6 6 C-6 5.34 -6 4.68 -6 4 C-4.02 4 -2.04 4 0 4 C0 2.68 0 1.36 0 0 Z " fill="#FFF" transform="translate(42,156)"/>
<path d="M0 0 C8.25 0 16.5 0 25 0 C26.32 3.63 27.64 7.26 29 11 C34.79080946 15.48375313 34.79080946 15.48375313 42 16 C42 16.33 42 16.66 42 17 C32 17 32 17 26 12 C24 7 24 7 24 2 C15.42 2 6.84 2 -2 2 C-1.34 1.34 -0.68 0.68 0 0 Z " fill="#9D5A1F" transform="translate(70,95)"/>
<path d="M0 0 C6.38139657 6.38139657 2 17.97534242 2 27 C-2 38 -2 38 -5 43 C-5.66 43 -6.32 43 -7 43 C-6.34 41.35 -5.68 39.7 -5 38 C0.29030936 23.99262704 0.29030936 23.99262704 0 0 Z " fill="#AA5A12" transform="translate(149,75)"/>
<path d="M0 0 C0.99 0 1.98 0 3 0 C2 9 2 9 0 16 C0.99 16 1.98 16 3 16 C3 15.34 3 14.68 3 14 C9.5659052 10.7170474 17.65909482 13 25 13 C25 13.33 25 13.66 25 14 C19.06 14 13.12 14 7 14 C7 14.66 7 15.32 7 16 C2.545 17.485 2.545 17.485 -2 19 C-1 6 -1 6 0 0 Z " fill="#AB5A0F" transform="translate(98,37)"/>
<path d="M0 0 C2 3 2 3 5 10 C2.36 11.98 -0.28 13.96 -3 16 C-3.66 15.67 -4.32 15.34 -5 15 C-1 1 -1 1 0 0 Z " fill="#FFF" transform="translate(156,175)"/>
<path d="M0 0 C1.32 0 2.64 0 4 0 C3 12 3 12 2 14 C0.68 14 -0.64 14 -2 14 C-1 3 -1 3 0 0 Z " fill="#191919" transform="translate(133,178)"/>
<path d="M0 0 C2.97 0 5.94 0 9 0 C8.01 3.3 7.02 6.6 6 10 C5.01 10 4.02 10 3 10 C2.01 6.7 1.02 3.4 0 0 Z " fill="#FFF" transform="translate(160,170)"/>
<path d="M0 0 C0.99 0 1.98 0 3 0 C3 6.27 3 12.54 3 19 C4.32 19 5.64 19 7 19 C7 14.38 7 9.76 7 5 C9 8 9 8 9 12 C9.66 12 10.32 12 11 12 C10 17 10 17 8 20 C6.02 20 4.04 20 2 20 C1 3 1 3 2 1 C1.34 0.67 0.68 0.34 0 0 Z " fill="#FFF" transform="translate(136,175)"/>
<path d="M0 0 C5.28 0 10.56 0 16 0 C17 3 17 3 16 12 C19.3 12 22.6 12 26 12 C26 12.33 26 12.66 26 13 C22.37 13 18.74 13 15 13 C15 9.37 15 5.74 15 2 C9.39 2 3.78 2 -2 2 C-1.34 1.34 -0.68 0.68 0 0 Z " fill="#9C5D28" transform="translate(166,9)"/>
<path d="M0 0 C2.64 0 5.28 0 8 0 C8 1.98 8 3.96 8 6 C7.67 6.33 7.34 6.66 7 7 C4.69 7 2.38 7 0 7 C0 4.69 0 2.38 0 0 Z " fill="#FFF" transform="translate(157,158)"/>
<path d="M0 0 C7.76748185 3.88374092 9.45329209 8.0199072 13 16 C13.33 19.3 13.66 22.6 14 26 C11.59168108 21.18336217 9.84034272 16.06094247 8 11 C5.69 8.03 3.38 5.06 1 2 C0.67 1.34 0.34 0.68 0 0 Z " fill="#87440D" transform="translate(136,59)"/>
<path d="M0 0 C0.99 0.33 1.98 0.66 3 1 C-6.14422198 7.09614799 -9.43634665 7 -21 7 C-20.67 6.34 -20.34 5.68 -20 5 C-13.565 4.505 -13.565 4.505 -7 4 C-3.24829576 2.34922098 -3.24829576 2.34922098 0 0 Z " fill="#9D5313" transform="translate(31,25)"/>
<path d="M0 0 C0.66 0.99 1.32 1.98 2 3 C4.97 3.33 7.94 3.66 11 4 C11 4.66 11 5.32 11 6 C1 7 1 7 -6 6 C-6 5.34 -6 4.68 -6 4 C-4.02 4 -2.04 4 0 4 C0 2.68 0 1.36 0 0 Z " fill="#FFF" transform="translate(42,156)"/>
<path d="M0 0 C0.66 0 1.32 0 2 0 C3.32 1.98 4.64 3.96 6 6 C10.31622777 8.42163702 10.31622777 8.42163702 17 9 C17 9.33 17 9.66 17 10 C7 10 7 10 1 5 C0.67 3.35 0.34 1.7 0 0 Z " fill="#884309" transform="translate(95,102)"/>
<path d="M0 0 C1 3 1 3 -2 11 C-2.33 11 -2.66 11 -3 11 C-3 9.02 -3 7.04 -3 5 C-4.65 5.33 -6.3 5.66 -8 6 C-8 4.68 -8 3.36 -8 2 C-7.01 2 -6.02 2 -5 2 C-5 2.66 -5 3.32 -5 4 C-1 2.5 -1 2.5 0 0 Z " fill="#FFF" transform="translate(151,172)"/>
<path d="M0 0 C2.97 0 5.94 0 9 0 C9.33 0.99 9.66 1.98 10 3 C6.37 3 2.74 3 -1 3 C-0.67 2.01 -0.34 1.02 0 0 Z " fill="#B26219" transform="translate(154,19)"/>
<path d="M0 0 C6 0 6 0 9 2 C9 2.66 9 3.32 9 4 C7.68 4 6.36 4 5 4 C5 3.01 5 2.02 5 1 C3.68 1 2.36 1 1 1 C1 1.99 1 2.98 1 4 C-1.97 4 -4.94 4 -8 4 C-8 3.67 -8 3.34 -8 3 C-5.36 3 -2.72 3 0 3 C0 2.01 0 1.02 0 0 Z " fill="#FFF" transform="translate(52,152)"/>
<path d="M0 0 C0.66 0.33 1.32 0.66 2 1 C1 7 1 7 -3 14 C-3.66 14 -4.32 14 -5 14 C-4.34 12.35 -3.68 10.7 -3 9 C-2.01 6.03 -1.02 3.06 0 0 Z " fill="#B96A1F" transform="translate(147,104)"/>
<path d="M0 0 C1.32 0.33 2.64 0.66 4 1 C1.525 2.485 1.525 2.485 -1 4 C-1.99 4.99 -2.98 5.98 -4 7 C-4.99 7 -5.98 7 -7 7 C-5 3 -5 3 0 0 Z " fill="#D77517" transform="translate(102,74)"/>
<path d="M0 0 C-6 3 -6 3 -15 1 C-4.71428571 -1.57142857 -4.71428571 -1.57142857 0 0 Z " fill="#BB630F" transform="translate(118,109)"/>
<path d="M0 0 C0.99 0.33 1.98 0.66 3 1 C-3 5 -3 5 -7 6 C-7 5.34 -7 4.68 -7 4 C-5.02 3.01 -3.04 2.02 -1 1 C-0.67 0.67 -0.34 0.34 0 0 Z " fill="#B3641B" transform="translate(31,25)"/>
</svg>
